<svg xmlns="http://www.w3.org/2000/svg" viewBox="0 0 14 14">
	<g>
		<path
			d="M1.5.5h8a1,1,0,0,1,1,1v10a2,2,0,0,1-2,2h-6a2,2,0,0,1-2-2V1.5A1,1,0,0,1,1.5.5Z"
			fill="none"
			stroke="#3B7E9C"
			stroke-linecap="round"
			stroke-linejoin="round">
		</path>
		<path
			d="M10.5,3h2a1,1,0,0,1,1,1V8.5a1,1,0,0,1-1,1h-2"
			fill="none" stroke="#3B7E9C"
			stroke-linecap="round"
			stroke-linejoin="round">
		</path>
		<line
			x1="3.75"
			y1="4"
			x2="3.75"
			y2="9.5"
			fill="none"
			stroke="#3B7E9C"
			stroke-linecap="round"
			stroke-linejoin="round"/>
		<line
			x1="7.25"
			y1="4"
			x2="7.25"
			y2="9.5"
			fill="none"
			stroke="#3B7E9C"
			stroke-linecap="round"
			stroke-linejoin="round"/>
	</g>
</svg>
